# xmcd CD database file
#
# Track frame offsets:
#	150
#	24601
#	47584
#	66119
#	90357
#	104698
#	127133
#	148381
#	177277
#	195810
#	207634
#	225718
#	242334
#	263178
#	283237
#
# Disc length: 3956 seconds
#
# Revision: 0
# Processed by: cddbd v1.5.1PL0 Copyright (c) Steve Scherf et al.
# Submitted via: CDex 1.51
#
DISCID=df0f720f
DTITLE=Various Artist - Lucerne Blues Festival 2003 Part II
DYEAR=2003
DGENRE=Blues
TTITLE0=Sharrie Williams - I've Got To Find Me A Mojo
TTITLE1=Sonny Rhodes - She's Not Happy Unless She's Sad
TTITLE2=Willie "Big Eyes" Smith - Big Rear End
TTITLE3=Frank Goldwasser - Three Sisters
TTITLE4=Kim Wilson - Tried To Ruin Me
TTITLE5=Chick Willis - Stoop Down Baby Let Your Daddy See
TTITLE6=Mel Brown - You're The One
TTITLE7=Vance Kelly - Highway Here I Come
TTITLE8=Sugar Ray and The Bluetones - The Picture
TTITLE9=Otis Clay and The Soul Stirrers - God Is Standing By
TTITLE10=Wild Child Butler - Forty Year Old Woman
TTITLE11=Billy Flynn (Kim Wilson Blues Revue) - Chicago Blues
TTITLE12=Jody Williams - Come Over To My House
TTITLE13=Doug Macleod - A Little Sin
TTITLE14=R.J. Msicho - I'll Take The Whole Thing
EXTD=YEAR: 2003
EXTT0=
EXTT1=
EXTT2=
EXTT3=
EXTT4=
EXTT5=
EXTT6=
EXTT7=
EXTT8=
EXTT9=
EXTT10=
EXTT11=
EXTT12=
EXTT13=
EXTT14=
PLAYORDER=
